<?xml version="1.0" encoding="UTF-8"?>
<svg width="20px" height="20px" viewBox="0 0 20 20" version="1.1" xmlns="http://www.w3.org/2000/svg">
    <g stroke="none" stroke-width="1" fill="none" fill-rule="evenodd">
        <path d="M3,2 L17,2 C17.5522847,2 18,2.44771525 18,3 L18,17 C18,17.5522847 17.5522847,18 17,18 L3,18 C2.44771525,18 2,17.5522847 2,17 L2,3 C2,2.44771525 2.44771525,2 3,2 Z" stroke="currentColor" stroke-width="1.5"/>
        <rect fill="currentColor" x="5" y="5" width="2" height="2" rx="0.5"/>
        <rect fill="currentColor" x="9" y="5" width="2" height="2" rx="0.5"/>
        <rect fill="currentColor" x="13" y="5" width="2" height="2" rx="0.5"/>
        <rect fill="currentColor" x="5" y="9" width="2" height="2" rx="0.5"/>
        <rect fill="currentColor" x="9" y="9" width="2" height="2" rx="0.5"/>
        <rect fill="currentColor" x="13" y="9" width="2" height="2" rx="0.5"/>
        <rect fill="currentColor" x="9" y="13" width="2" height="5" rx="0.5"/>
    </g>
</svg>
